<svg xmlns="http://www.w3.org/2000/svg" xmlns:v="https://svgstorm.com"
viewBox = "0 0 512 512"
width="24"
height="24">
<g fill="None" fill-opacity="0.0" stroke="#7D3EDD" stroke-opacity="0.01" stroke-width="0.3"><path d="
M 0.00 512.00 
L 512.00 512.00
L 512.00 0.00
L 0.00 0.00
L 0.00 512.00
M 373.00 176.00 
C 361.71 160.41 352.97 142.65 343.00 126.00
C 244.12 181.04 146.59 239.13 48.00 295.00
C 35.22 271.83 21.58 249.27 9.00 226.00
C 107.21 169.95 204.80 113.03 303.00 57.00
C 294.21 39.68 283.18 23.27 274.00 6.00
C 286.61 7.08 298.54 9.14 311.02 10.98 C 323.50 12.81 336.48 14.07 349.00 16.00 C 361.52 17.93 373.98 19.81 386.67 21.33 C 399.36 22.85 411.24 25.32 424.02 26.98 C 436.81 28.63 424.37 43.12 421.69 52.69 C 419.01 62.26 412.75 73.30 409.23 83.23 C 405.71 93.15 401.14 104.05 397.08 114.08 C 393.01 124.10 388.95 134.82 385.02 145.02 C 381.10 155.23 375.77 165.40 373.00 176.00
M 503.00 155.00 
C 503.00 272.00 503.00 389.00 503.00 506.00
C 474.00 506.00 445.00 506.00 416.00 506.00
C 416.00 389.00 416.00 272.00 416.00 155.00
C 445.00 155.00 474.00 155.00 503.00 155.00
M 371.00 218.00 
C 371.00 314.00 371.00 410.00 371.00 506.00
C 342.00 506.00 313.00 506.00 284.00 506.00
C 284.00 410.00 284.00 314.00 284.00 218.00
C 313.00 218.00 342.00 218.00 371.00 218.00
M 237.00 280.00 
C 237.00 355.33 237.00 430.67 237.00 506.00
C 208.33 506.00 179.67 506.00 151.00 506.00
C 151.00 430.66 151.00 355.34 151.00 280.00
C 179.67 280.00 208.33 280.00 237.00 280.00
M 104.00 342.00 
C 104.00 396.67 104.00 451.33 104.00 506.00
C 75.00 506.00 46.00 506.00 17.00 506.00
C 17.00 451.34 17.00 396.67 17.00 342.00
C 46.00 342.00 75.00 342.00 104.00 342.00 Z"/>
</g>
<g fill="None" fill-opacity="0.0" stroke="#7D3EDD" stroke-opacity="1.00" stroke-width="0.3"><path d="
M 373.00 176.00 
C 375.77 165.40 381.10 155.23 385.02 145.02 C 388.95 134.82 393.01 124.10 397.08 114.08 C 401.14 104.05 405.71 93.15 409.23 83.23 C 412.75 73.30 419.01 62.26 421.69 52.69 C 424.37 43.12 436.81 28.63 424.02 26.98 C 411.24 25.32 399.36 22.85 386.67 21.33 C 373.98 19.81 361.52 17.93 349.00 16.00 C 336.48 14.07 323.50 12.81 311.02 10.98 C 298.54 9.14 286.61 7.08 274.00 6.00
C 283.18 23.27 294.21 39.68 303.00 57.00
C 204.80 113.03 107.21 169.95 9.00 226.00
C 21.58 249.27 35.22 271.83 48.00 295.00
C 146.59 239.13 244.12 181.04 343.00 126.00
C 352.97 142.65 361.71 160.41 373.00 176.00 Z"/>
</g>
<g fill="None" fill-opacity="0.0" stroke="#7D3EDD" stroke-opacity="1.00" stroke-width="0.3"><path d="
M 503.00 155.00 
C 474.00 155.00 445.00 155.00 416.00 155.00
C 416.00 272.00 416.00 389.00 416.00 506.00
C 445.00 506.00 474.00 506.00 503.00 506.00
C 503.00 389.00 503.00 272.00 503.00 155.00 Z"/>
</g>
<g fill="None" fill-opacity="0.0" stroke="#7D3EDD" stroke-opacity="1.00" stroke-width="0.3"><path d="
M 371.00 218.00 
C 342.00 218.00 313.00 218.00 284.00 218.00
C 284.00 314.00 284.00 410.00 284.00 506.00
C 313.00 506.00 342.00 506.00 371.00 506.00
C 371.00 410.00 371.00 314.00 371.00 218.00 Z"/>
</g>
<g fill="None" fill-opacity="0.0" stroke="#7D3EDD" stroke-opacity="1.00" stroke-width="0.3"><path d="
M 237.00 280.00 
C 208.33 280.00 179.67 280.00 151.00 280.00
C 151.00 355.34 151.00 430.66 151.00 506.00
C 179.67 506.00 208.33 506.00 237.00 506.00
C 237.00 430.67 237.00 355.33 237.00 280.00 Z"/>
</g>
<g fill="None" fill-opacity="0.0" stroke="#7D3EDD" stroke-opacity="1.00" stroke-width="0.3"><path d="
M 104.00 342.00 
C 75.00 342.00 46.00 342.00 17.00 342.00
C 17.00 396.67 17.00 451.34 17.00 506.00
C 46.00 506.00 75.00 506.00 104.00 506.00
C 104.00 451.33 104.00 396.67 104.00 342.00 Z"/>
</g>
<g fill="#7D3EDD" fill-opacity="0.01" stroke="None">
<path d="
M 0.00 512.00 
L 512.00 512.00
L 512.00 0.00
L 0.00 0.00
L 0.00 512.00
M 373.00 176.00 
C 361.71 160.41 352.97 142.65 343.00 126.00
C 244.12 181.04 146.59 239.13 48.00 295.00
C 35.22 271.83 21.58 249.27 9.00 226.00
C 107.21 169.95 204.80 113.03 303.00 57.00
C 294.21 39.68 283.18 23.27 274.00 6.00
C 286.61 7.08 298.54 9.14 311.02 10.98 C 323.50 12.81 336.48 14.07 349.00 16.00 C 361.52 17.93 373.98 19.81 386.67 21.33 C 399.36 22.85 411.24 25.32 424.02 26.98 C 436.81 28.63 424.37 43.12 421.69 52.69 C 419.01 62.26 412.75 73.30 409.23 83.23 C 405.71 93.15 401.14 104.05 397.08 114.08 C 393.01 124.10 388.95 134.82 385.02 145.02 C 381.10 155.23 375.77 165.40 373.00 176.00
M 503.00 155.00 
C 503.00 272.00 503.00 389.00 503.00 506.00
C 474.00 506.00 445.00 506.00 416.00 506.00
C 416.00 389.00 416.00 272.00 416.00 155.00
C 445.00 155.00 474.00 155.00 503.00 155.00
M 371.00 218.00 
C 371.00 314.00 371.00 410.00 371.00 506.00
C 342.00 506.00 313.00 506.00 284.00 506.00
C 284.00 410.00 284.00 314.00 284.00 218.00
C 313.00 218.00 342.00 218.00 371.00 218.00
M 237.00 280.00 
C 237.00 355.33 237.00 430.67 237.00 506.00
C 208.33 506.00 179.67 506.00 151.00 506.00
C 151.00 430.66 151.00 355.34 151.00 280.00
C 179.67 280.00 208.33 280.00 237.00 280.00
M 104.00 342.00 
C 104.00 396.67 104.00 451.33 104.00 506.00
C 75.00 506.00 46.00 506.00 17.00 506.00
C 17.00 451.34 17.00 396.67 17.00 342.00
C 46.00 342.00 75.00 342.00 104.00 342.00 Z"/>
</g>
<g fill="#7D3EDD" fill-opacity="1.00" stroke="None">
<path d="
M 373.00 176.00 
C 375.77 165.40 381.10 155.23 385.02 145.02 C 388.95 134.82 393.01 124.10 397.08 114.08 C 401.14 104.05 405.71 93.15 409.23 83.23 C 412.75 73.30 419.01 62.26 421.69 52.69 C 424.37 43.12 436.81 28.63 424.02 26.98 C 411.24 25.32 399.36 22.85 386.67 21.33 C 373.98 19.81 361.52 17.93 349.00 16.00 C 336.48 14.07 323.50 12.81 311.02 10.98 C 298.54 9.14 286.61 7.08 274.00 6.00
C 283.18 23.27 294.21 39.68 303.00 57.00
C 204.80 113.03 107.21 169.95 9.00 226.00
C 21.58 249.27 35.22 271.83 48.00 295.00
C 146.59 239.13 244.12 181.04 343.00 126.00
C 352.97 142.65 361.71 160.41 373.00 176.00 Z"/>
</g>
<g fill="#7D3EDD" fill-opacity="1.00" stroke="None">
<path d="
M 503.00 155.00 
C 474.00 155.00 445.00 155.00 416.00 155.00
C 416.00 272.00 416.00 389.00 416.00 506.00
C 445.00 506.00 474.00 506.00 503.00 506.00
C 503.00 389.00 503.00 272.00 503.00 155.00 Z"/>
</g>
<g fill="#7D3EDD" fill-opacity="1.00" stroke="None">
<path d="
M 371.00 218.00 
C 342.00 218.00 313.00 218.00 284.00 218.00
C 284.00 314.00 284.00 410.00 284.00 506.00
C 313.00 506.00 342.00 506.00 371.00 506.00
C 371.00 410.00 371.00 314.00 371.00 218.00 Z"/>
</g>
<g fill="#7D3EDD" fill-opacity="1.00" stroke="None">
<path d="
M 237.00 280.00 
C 208.33 280.00 179.67 280.00 151.00 280.00
C 151.00 355.34 151.00 430.66 151.00 506.00
C 179.67 506.00 208.33 506.00 237.00 506.00
C 237.00 430.67 237.00 355.33 237.00 280.00 Z"/>
</g>
<g fill="#7D3EDD" fill-opacity="1.00" stroke="None">
<path d="
M 104.00 342.00 
C 75.00 342.00 46.00 342.00 17.00 342.00
C 17.00 396.67 17.00 451.34 17.00 506.00
C 46.00 506.00 75.00 506.00 104.00 506.00
C 104.00 451.33 104.00 396.67 104.00 342.00 Z"/>
</g>
</svg>