<?xml version="1.0" encoding="iso-8859-1"?>
<!-- Uploaded to: SVG Repo, www.svgrepo.com, Generator: SVG Repo Mixer Tools -->
<!DOCTYPE svg PUBLIC "-//W3C//DTD SVG 1.1//EN" "http://www.w3.org/Graphics/SVG/1.1/DTD/svg11.dtd">
<svg fill="#652be2" version="1.1" id="Capa_1" xmlns="http://www.w3.org/2000/svg" xmlns:xlink="http://www.w3.org/1999/xlink" 
	 width="24" height="24" viewBox="0 0 959.9 959.9" xml:space="preserve"
	>
<g>
	<g>
		<path d="M567,447.55h-54.699v-64.2h44.1c17.9,0,32.5-14.6,32.5-32.5c0-17.9-14.6-32.5-32.5-32.5h-44.1v-29.8
			c0-17.9-14.602-32.5-32.5-32.5c-17.9,0-32.5,14.6-32.5,32.5v29.8h-57.5c-17.9,0-32.5,14.6-32.5,32.5v129.201
			c0,17.9,14.6,32.5,32.5,32.5h57.5v64.199h-49.2c-17.9,0-32.5,14.6-32.5,32.5s14.6,32.5,32.5,32.5h49.2v29.801
			c0,17.9,14.6,32.5,32.5,32.5c17.899,0,32.5-14.6,32.5-32.5V641.75H567c17.9,0,32.5-14.6,32.5-32.5V480.051
			C599.5,462.15,584.9,447.55,567,447.55z M447.2,447.55h-25v-64.2h25V447.55z M534.5,576.75h-22.199v-64.199H534.5V576.75z"/>
		<path d="M925,375.75l-59.199-19.2c-3.701-11.6-7.9-23-12.701-34.3c-4-9.5-8.4-18.8-13.1-27.9l28.301-55.5
			c9.898-19.3,6.199-42.8-9.201-58.1l-80.4-80.4c-15.199-15.2-38.5-19-57.799-9.3l-56.301,28.3c-8.9-4.5-17.9-8.8-27.1-12.7
			c-11.301-4.8-22.699-9-34.301-12.7L584,34.75c-6.699-20.6-25.9-34.6-47.6-34.6H423c-21.601,0-40.7,13.8-47.5,34.3L355.7,94.25
			c-11.3,3.6-22.5,7.8-33.5,12.5c-9.199,3.9-18.3,8.1-27.1,12.7l-56.3-28.3c-19.3-9.7-42.6-5.9-57.8,9.3l-80.4,80.5
			c-15.3,15.3-19,38.8-9.2,58.1l28.3,55.5c-4.7,9.1-9,18.4-13.1,27.9c-4.7,11-8.8,22.2-12.5,33.5l-59.8,19.8
			C13.8,382.55,0,401.65,0,423.25V536.85c0,21.701,14,40.9,34.6,47.602l59.2,19.199c3.7,11.6,7.9,23,12.7,34.301
			c4,9.5,8.4,18.799,13.1,27.898l-28.2,55.201c-9.9,19.299-6.2,42.799,9.2,58.1l80.4,80.4c15.2,15.199,38.5,19,57.8,9.299
			l56.3-28.299c8.9,4.5,17.9,8.799,27.1,12.699c11.301,4.801,22.7,9,34.301,12.701L375.7,925.15c6.7,20.6,25.9,34.6,47.601,34.6H573
			l31.199-94.1c11.301-3.6,22.5-7.801,33.5-12.5c9.201-3.9,18.301-8.1,27.102-12.699L721.1,868.75
			c19.301,9.701,42.6,5.9,57.801-9.299l80.4-80.4c15.299-15.301,19-38.801,9.199-58.1l-28.301-55.5c4.701-9.102,9-18.4,13.102-27.9
			c4.699-11,8.799-22.201,12.5-33.5L925.6,584.25c20.5-6.799,34.301-25.9,34.301-47.5v-113.4
			C959.6,401.65,945.699,382.451,925,375.75z M660.301,660.451C612.1,708.65,548.1,735.15,479.9,735.15
			c-68.2,0-132.2-26.5-180.399-74.699c-48.2-48.201-74.7-112.201-74.7-180.4c0-68.201,26.5-132.201,74.7-180.4
			c48.199-48.2,112.199-74.7,180.399-74.7c68.2,0,132.2,26.5,180.401,74.7C708.5,347.85,735,411.85,735,480.051
			C735,548.25,708.4,612.25,660.301,660.451z"/>
	</g>
</g>
</svg>