<svg xmlns="http://www.w3.org/2000/svg" width="24" height="24" viewBox="280 100 240 400" preserveAspectRatio="xMidYMid meet">
  <path fill="none" d="M0 613h700V0H0zM400 90c23.4-9.31 50.49 10.2 50 35 31.07 3.83 64.52-5.55 95 1s31.94 38.08 30 66 2.47 66.57 0 96 6.75 63.46-4.77 91.23S518.17 399.1 494 400c-1.87 11.09-5.35 22.68-8.78 33.22-3.42 10.55-7.17 21.08-12.14 30.86-4.98 9.77-8.87 17.99-14.85 27.15s-10.97 15.59-18.98 24.02c-8.01 8.42-13.78 10.74-24.48 17.52S401 522.81 398 513c27.48-13.76 41.51-33.98 54.32-62.68 12.81-28.69 22.57-60.45 21.68-95.32s.67-81.1 0-117c-22.21 1.35-26.05 20.91-24 41s-2.06 44.08 0 65-23.43 17.07-32.75 32.25S399.91 406.54 400 425h-25c1.2-8.36 1.65-16.91 4-25H256c7.79 40.77 18.53 86.91 53 114-5.47 3.77-5.65 16.71-11.25 19.75-5.61 3.03-13.18-7.07-18-11.5s-9.62-12.36-13.52-18.48-8.21-13.47-11.15-20.85c-2.95-7.37-6.8-14.68-9.06-22.94-2.25-8.27-6.64-14.69-7.95-24.05-1.3-9.37-5.86-14.97-6.05-25.95-.18-10.98-11.64-11.05-22.02-9.98s-21.07-.57-31 0-20.61.13-29.07-2.93c-8.47-3.06-12.43-7-17.85-14.15S124.97 367.65 125 358s-.01-21.81 0-32-.01-21.59 0-32-.01-21.55 0-32-.02-21.65 0-32-.05-20.88 0-31-.1-22.33 0-32 1.49-17.67 6.92-25.08c5.43-7.42 9.81-10.4 18.1-13.9 8.3-3.49 19.03-3.22 28.98-3.02s21.67-.09 32 0 21.51-.05 32 0 21.46-.04 32 0c-.34-24.34 26.87-44.47 50-35-.7-21.4 15.74-38.73 37-39s39.19 17.17 38 39"/>
  <path fill="none" stroke="#7d3edd" stroke-width=".3" d="M400 90c1.19-21.83-16.74-39.27-38-39s-37.7 17.6-37 39c-23.13-9.47-50.34 10.66-50 35-10.54-.04-21.51.05-32 0s-21.67.09-32 0-22.05.2-32 0-20.68-.47-28.98 3.02c-8.29 3.5-12.67 6.48-18.1 13.9-5.43 7.41-6.82 15.41-6.92 25.08s.05 21.88 0 32 .02 20.65 0 31 .01 21.55 0 32 .01 21.59 0 32 .01 21.81 0 32 .03 22.35 0 32 1.66 17.77 7.08 24.92 9.38 11.09 17.85 14.15c8.46 3.06 19.14 3.5 29.07 2.93s20.62 1.07 31 0 21.84-1 22.02 9.98c.19 10.98 4.75 16.58 6.05 25.95 1.31 9.36 5.7 15.78 7.95 24.05 2.26 8.26 6.11 15.57 9.06 22.94 2.94 7.38 7.25 14.73 11.15 20.85s8.7 14.05 13.52 18.48 12.39 14.53 18 11.5c5.6-3.04 5.78-15.98 11.25-19.75-34.47-27.09-45.21-73.23-53-114h123c-2.35 8.09-2.8 16.64-4 25h25c-.09-18.46 7.93-33.57 17.25-48.75S452.06 364.92 450 344s2.05-44.91 0-65 1.79-39.65 24-41c.67 35.9-.89 82.13 0 117s-8.87 66.63-21.68 95.32c-12.81 28.7-26.84 48.92-54.32 62.68 3 9.81 6.07 26.55 16.77 19.77s16.47-9.1 24.48-17.52c8.01-8.43 13-14.86 18.98-24.02s9.87-17.38 14.85-27.15c4.97-9.78 8.72-20.31 12.14-30.86 3.43-10.54 6.91-22.13 8.78-33.22 24.17-.9 64.71 7 76.23-20.77s2.3-61.8 4.77-91.23-1.94-68.08 0-96 .48-59.45-30-66-63.93 2.83-95-1c.49-24.8-26.6-44.31-50-35m-25 35h-25c3.73-12.49-9.59-49.39 12.07-49.93S372.13 112.35 375 125m-50 0h-25c-.12-15.65 25-15.67 25 0m100 0h-25c-.12-15.65 25-15.67 25 0m73 250c.02-24.18-.02-48.87 0-73s-.04-49.05 0-73-33.9-19.28-49.69-8.69c-15.8 10.58-24.79 28.83-23.31 49.69s-1.11 51.27 0 73c-17.49 4.69-31.04 20.82-38 37-4.04-9.14-18.34-4.13-29-5s-23.86.43-35 0-23.72.27-35 0-22.74.29-34 0-23.9.5-35 0-24.45 1.03-35 0-22.62 3.95-30.25-3.75c-7.62-7.7-2.71-20.65-3.75-31.25s.52-23.9 0-35 .31-22.63 0-34 .31-23.47 0-35 .51-23.39 0-35 1.09-22.24 0-34 6.37-18.17 18-17 23.43-.54 35 0 22.44-.24 34 0 23.42-.11 35 0 23.45-.06 35 0 22.46-.04 34 0 23.45-.06 35 0 23.53-.1 35 0 22.63-.23 34 0 23.81-.49 35 0 24.31-1.09 35 0 22.62-3.96 30.75 3.25 3.26 20.33 4.25 30.75-.47 22.93 0 34-.29 23.62 0 35-.31 23.51 0 35-.53 23.51 0 35-1.15 22.53 0 34-5.12 19.29-17 18-23.17.96-35 0Z"/>
  <path fill="none" d="M375 125c-2.87-12.65 8.73-50.47-12.93-49.93S353.73 112.51 350 125zm-50 0c0-15.67-25.12-15.65-25 0zm100 0c0-15.67-25.12-15.65-25 0z"/>
  <path fill="none" stroke="#7d3edd" stroke-opacity=".01" stroke-width=".3" d="M498 375c11.83.96 23.12-1.29 35 0s18.15-6.53 17-18 .53-22.51 0-34 .31-23.51 0-35 .29-23.62 0-35 .47-23.93 0-35 .99-23.58 0-34 3.88-23.54-4.25-30.75-20.06-2.16-30.75-3.25-23.81.49-35 0-23.63.23-35 0-22.53.1-34 0-23.45.06-35 0-23.46.04-35 0-22.45.06-34 0-23.42.11-35 0-23.44.24-35 0-22.43.54-34 0-23.37 1.17-35 0-19.09 5.24-18 17-.51 22.39 0 34-.31 23.47 0 35-.31 23.63 0 35-.52 22.9 0 34-1.04 24.4 0 35-3.87 23.55 3.75 31.25c7.63 7.7 19.7 2.72 30.25 3.75s23.9-.5 35 0 23.74-.29 35 0 22.72-.27 34 0 23.86-.43 35 0 24.34-.87 35 0 24.96-4.14 29 5c6.96-16.18 20.51-32.31 38-37-1.11-21.73 1.48-52.14 0-73s7.51-39.11 23.31-49.69c15.79-10.59 49.73-15.26 49.69 8.69s.02 48.87 0 73 .02 48.82 0 73M374 176v25h25v24c-22.07.94-37.25-1.25-60 0s-14.17 30.24 5 26 34.38-.01 46.75 12.25 11.25 31.37 2.5 45c-8.76 13.62-28.19 18.97-44.25 16.75v25h-24c-2.68-5.81 3.92-19.53-.78-24.22-4.69-4.69-18.39 1.9-24.22-.78v-24c10.37.01 21.72-.01 32 0s22.46.41 32.01-.99c9.54-1.4 14.53-12.35 8.74-19.76-5.79-7.4-18.04-6-26.75-5.25s-19.2.37-26.74-4.26c-7.55-4.62-12.27-9.15-16.03-16.97s-4.63-18.96-1.45-26.99c3.17-8.04 6.26-13.87 14.3-18.7s14.73-8.39 25.92-7.08 8-15.97 8-25z"/>
  <path fill="none" stroke="#7d3edd" stroke-width=".3" d="M374 176h-24c0 9.03 3.19 26.31-8 25s-17.88 2.25-25.92 7.08-11.13 10.66-14.3 18.7c-3.18 8.03-2.31 19.17 1.45 26.99s8.48 12.35 16.03 16.97c7.54 4.63 18.03 5.01 26.74 4.26s20.96-2.15 26.75 5.25c5.79 7.41.8 18.36-8.74 19.76-9.55 1.4-21.73 1-32.01.99s-21.63.01-32 0v24c5.83 2.68 19.53-3.91 24.22.78 4.7 4.69-1.9 18.41.78 24.22h24v-25c16.06 2.22 35.49-3.13 44.25-16.75 8.75-13.63 9.87-32.74-2.5-45S363.17 246.76 344 251s-27.75-24.75-5-26 37.93.94 60 0v-24h-25z"/>
  <path fill="none" d="M0 613h700V0H0zM400 90c23.4-9.31 50.49 10.2 50 35 31.07 3.83 64.52-5.55 95 1s31.94 38.08 30 66 2.47 66.57 0 96 6.75 63.46-4.77 91.23S518.17 399.1 494 400c-1.87 11.09-5.35 22.68-8.78 33.22-3.42 10.55-7.17 21.08-12.14 30.86-4.98 9.77-8.87 17.99-14.85 27.15s-10.97 15.59-18.98 24.02c-8.01 8.42-13.78 10.74-24.48 17.52S401 522.81 398 513c27.48-13.76 41.51-33.98 54.32-62.68 12.81-28.69 22.57-60.45 21.68-95.32s.67-81.1 0-117c-22.21 1.35-26.05 20.91-24 41s-2.06 44.08 0 65-23.43 17.07-32.75 32.25S399.91 406.54 400 425h-25c1.2-8.36 1.65-16.91 4-25H256c7.79 40.77 18.53 86.91 53 114-5.47 3.77-5.65 16.71-11.25 19.75-5.61 3.03-13.18-7.07-18-11.5s-9.62-12.36-13.52-18.48-8.21-13.47-11.15-20.85c-2.95-7.37-6.8-14.68-9.06-22.94-2.25-8.27-6.64-14.69-7.95-24.05-1.3-9.37-5.86-14.97-6.05-25.95-.18-10.98-11.64-11.05-22.02-9.98s-21.07-.57-31 0-20.61.13-29.07-2.93c-8.47-3.06-12.43-7-17.85-14.15S124.97 367.65 125 358s-.01-21.81 0-32-.01-21.59 0-32-.01-21.55 0-32-.02-21.65 0-32-.05-20.88 0-31-.1-22.33 0-32 1.49-17.67 6.92-25.08c5.43-7.42 9.81-10.4 18.1-13.9 8.3-3.49 19.03-3.22 28.98-3.02s21.67-.09 32 0 21.51-.05 32 0 21.46-.04 32 0c-.34-24.34 26.87-44.47 50-35-.7-21.4 15.74-38.73 37-39s39.19 17.17 38 39"/>
  <path fill="#7d3edd" d="M400 90c1.19-21.83-16.74-39.27-38-39s-37.7 17.6-37 39c-23.13-9.47-50.34 10.66-50 35-10.54-.04-21.51.05-32 0s-21.67.09-32 0-22.05.2-32 0-20.68-.47-28.98 3.02c-8.29 3.5-12.67 6.48-18.1 13.9-5.43 7.41-6.82 15.41-6.92 25.08s.05 21.88 0 32 .02 20.65 0 31 .01 21.55 0 32 .01 21.59 0 32 .01 21.81 0 32 .03 22.35 0 32 1.66 17.77 7.08 24.92 9.38 11.09 17.85 14.15c8.46 3.06 19.14 3.5 29.07 2.93s20.62 1.07 31 0 21.84-1 22.02 9.98c.19 10.98 4.75 16.58 6.05 25.95 1.31 9.36 5.7 15.78 7.95 24.05 2.26 8.26 6.11 15.57 9.06 22.94 2.94 7.38 7.25 14.73 11.15 20.85s8.7 14.05 13.52 18.48 12.39 14.53 18 11.5c5.6-3.04 5.78-15.98 11.25-19.75-34.47-27.09-45.21-73.23-53-114h123c-2.35 8.09-2.8 16.64-4 25h25c-.09-18.46 7.93-33.57 17.25-48.75S452.06 364.92 450 344s2.05-44.91 0-65 1.79-39.65 24-41c.67 35.9-.89 82.13 0 117s-8.87 66.63-21.68 95.32c-12.81 28.7-26.84 48.92-54.32 62.68 3 9.81 6.07 26.55 16.77 19.77s16.47-9.1 24.48-17.52c8.01-8.43 13-14.86 18.98-24.02s9.87-17.38 14.85-27.15c4.97-9.78 8.72-20.31 12.14-30.86 3.43-10.54 6.91-22.13 8.78-33.22 24.17-.9 64.71 7 76.23-20.77s2.3-61.8 4.77-91.23-1.94-68.08 0-96 .48-59.45-30-66-63.93 2.83-95-1c.49-24.8-26.6-44.31-50-35m-25 35h-25c3.73-12.49-9.59-49.39 12.07-49.93S372.13 112.35 375 125m-50 0h-25c-.12-15.65 25-15.67 25 0m100 0h-25c-.12-15.65 25-15.67 25 0m73 250c.02-24.18-.02-48.87 0-73s-.04-49.05 0-73-33.9-19.28-49.69-8.69c-15.8 10.58-24.79 28.83-23.31 49.69s-1.11 51.27 0 73c-17.49 4.69-31.04 20.82-38 37-4.04-9.14-18.34-4.13-29-5s-23.86.43-35 0-23.72.27-35 0-22.74.29-34 0-23.9.5-35 0-24.45 1.03-35 0-22.62 3.95-30.25-3.75c-7.62-7.7-2.71-20.65-3.75-31.25s.52-23.9 0-35 .31-22.63 0-34 .31-23.47 0-35 .51-23.39 0-35 1.09-22.24 0-34 6.37-18.17 18-17 23.43-.54 35 0 22.44-.24 34 0 23.42-.11 35 0 23.45-.06 35 0 22.46-.04 34 0 23.45-.06 35 0 23.53-.1 35 0 22.63-.23 34 0 23.81-.49 35 0 24.31-1.09 35 0 22.62-3.96 30.75 3.25 3.26 20.33 4.25 30.75-.47 22.93 0 34-.29 23.62 0 35-.31 23.51 0 35-.53 23.51 0 35-1.15 22.53 0 34-5.12 19.29-17 18-23.17.96-35 0"/>
  <path fill="none" d="M375 125c-2.87-12.65 8.73-50.47-12.93-49.93S353.73 112.51 350 125zm-50 0c0-15.67-25.12-15.65-25 0zm100 0c0-15.67-25.12-15.65-25 0z"/>
  <path fill="#7d3edd" fill-opacity=".01" d="M498 375c11.83.96 23.12-1.29 35 0s18.15-6.53 17-18 .53-22.51 0-34 .31-23.51 0-35 .29-23.62 0-35 .47-23.93 0-35 .99-23.58 0-34 3.88-23.54-4.25-30.75-20.06-2.16-30.75-3.25-23.81.49-35 0-23.63.23-35 0-22.53.1-34 0-23.45.06-35 0-23.46.04-35 0-22.45.06-34 0-23.42.11-35 0-23.44.24-35 0-22.43.54-34 0-23.37 1.17-35 0-19.09 5.24-18 17-.51 22.39 0 34-.31 23.47 0 35-.31 23.63 0 35-.52 22.9 0 34-1.04 24.4 0 35-3.87 23.55 3.75 31.25c7.63 7.7 19.7 2.72 30.25 3.75s23.9-.5 35 0 23.74-.29 35 0 22.72-.27 34 0 23.86-.43 35 0 24.34-.87 35 0 24.96-4.14 29 5c6.96-16.18 20.51-32.31 38-37-1.11-21.73 1.48-52.14 0-73s7.51-39.11 23.31-49.69c15.79-10.59 49.73-15.26 49.69 8.69s.02 48.87 0 73 .02 48.82 0 73M374 176v25h25v24c-22.07.94-37.25-1.25-60 0s-14.17 30.24 5 26 34.38-.01 46.75 12.25 11.25 31.37 2.5 45c-8.76 13.62-28.19 18.97-44.25 16.75v25h-24c-2.68-5.81 3.92-19.53-.78-24.22-4.69-4.69-18.39 1.9-24.22-.78v-24c10.37.01 21.72-.01 32 0s22.46.41 32.01-.99c9.54-1.4 14.53-12.35 8.74-19.76-5.79-7.4-18.04-6-26.75-5.25s-19.2.37-26.74-4.26c-7.55-4.62-12.27-9.15-16.03-16.97s-4.63-18.96-1.45-26.99c3.17-8.04 6.26-13.87 14.3-18.7s14.73-8.39 25.92-7.08 8-15.97 8-25z"/>
  <path fill="#7d3edd" d="M374 176h-24c0 9.03 3.19 26.31-8 25s-17.88 2.25-25.92 7.08-11.13 10.66-14.3 18.7c-3.18 8.03-2.31 19.17 1.45 26.99s8.48 12.35 16.03 16.97c7.54 4.63 18.03 5.01 26.74 4.26s20.96-2.15 26.75 5.25c5.79 7.41.8 18.36-8.74 19.76-9.55 1.4-21.73 1-32.01.99s-21.63.01-32 0v24c5.83 2.68 19.53-3.91 24.22.78 4.7 4.69-1.9 18.41.78 24.22h24v-25c16.06 2.22 35.49-3.13 44.25-16.75 8.75-13.63 9.87-32.74-2.5-45S363.17 246.76 344 251s-27.75-24.75-5-26 37.93.94 60 0v-24h-25z"/>
</svg>